<svg width="59" height="89" fill="none" xmlns="http://www.w3.org/2000/svg"><path d="M55.495 23.884s-.499-17.5-.518-17.709a3.317 3.317 0 00-.249-.95 3.166 3.166 0 00-1.781-1.69L47.698 1.5a3.272 3.272 0 00-2.471.057 3.163 3.163 0 00-1.705 1.767l-3.582 9.178a25.993 25.993 0 00-1.667-.342V8.702C38.273 3.914 34.346 0 29.5 0s-8.773 3.895-8.773 8.702v3.459c-.556.095-1.111.209-1.667.342l-3.582-9.178a3.163 3.163 0 00-1.705-1.767 3.272 3.272 0 00-2.471-.057L6.053 3.515a3.166 3.166 0 00-1.781 1.691 3.24 3.24 0 00-.25.912c-.018.228-.516 17.766-.516 17.766A24.353 24.353 0 000 36.501v47.122c0 2.983 2.433 5.396 5.44 5.396h48.12c3.007 0 5.44-2.413 5.44-5.396V36.5c0-4.618-1.283-8.93-3.505-12.617zm-2.989-4.01a22.465 22.465 0 00-1.8-1.766l1.628-4.161.172 5.928zM46.204 4.352a.37.37 0 01.46-.209l5.23 2.014a.309.309 0 01.19.19c.02.057.058.152 0 .266l-3.773 9.634a25.096 25.096 0 00-5.632-2.926l3.525-8.969zM29.5 2.851c2.93 0 5.383 2.127 5.823 4.92A8.78 8.78 0 0029.5 5.567a8.814 8.814 0 00-5.823 2.185c.46-2.774 2.892-4.902 5.823-4.902zm5.364 8.986H24.136a6.113 6.113 0 011.188-1.71 5.908 5.908 0 014.176-1.71 5.91 5.91 0 015.364 3.42zM6.896 6.348a.309.309 0 01.192-.19l5.23-2.015c.19-.076.382.02.459.21l3.505 8.968a25.376 25.376 0 00-5.612 2.926L6.896 6.63a.478.478 0 010-.285zm-.23 7.58l1.628 4.162a26.177 26.177 0 00-1.8 1.767l.172-5.928zm49.46 69.677a2.557 2.557 0 01-2.566 2.546H5.44a2.557 2.557 0 01-2.567-2.546V36.482c0-12.028 9.866-21.813 22.01-21.813h9.253c12.125 0 21.99 9.785 21.99 21.813v47.122z" fill="#AAD4C8"/><path d="M10 48.205c-2.319 0-4.215 1.881-4.215 4.18v26.849c0 2.299 1.877 4.18 4.214 4.18h38.982c2.318 0 4.215-1.881 4.215-4.18V52.385c0-2.299-1.897-4.18-4.215-4.18H10zm39 32.359H10a1.34 1.34 0 01-1.342-1.33V61.316h36.167v3.249h2.873v-3.25h2.605v17.919c.02.74-.574 1.33-1.302 1.33zm1.322-28.179v6.1H8.678v-6.1c0-.722.593-1.33 1.34-1.33h38.983c.728 0 1.321.59 1.321 1.33zM38.618 20.52H20.382v8.133h18.236v-8.132zm-2.873 5.302h-12.49v-2.451h12.49v2.451z" fill="#AAD4C8"/></svg>