<svg width="99" height="93" fill="none" xmlns="http://www.w3.org/2000/svg"><path d="M45.332 47.06c-1.216.21-2.988 1.296-5.558 2.976-1.39.876-3.474 2.242-3.89 2.346-1.286-.315-11.499-3.01-11.499-3.01-.312-.106-.625-.036-.903.14a1.04 1.04 0 00-.486.77l-2.744 17.752c-.07.56.277 1.12.833 1.26l8.997 2.452c-.695 1.015-.799 2.416-.174 3.606.8 1.541 2.502 2.661 4.238 2.802.105.175.209.385.348.56 1.007 1.365 2.71 2.24 4.411 2.276.14.245.313.525.521.77 1.008 1.226 2.57 1.996 4.1 2.101.138.315.347.595.555.875.938 1.156 2.397 1.856 3.856 1.856 1.285 0 2.397-.56 3.091-1.575.383-.56 2.328-3.992 2.328-3.992.66.28 1.042.455 1.077.455 1.84.735 3.751-.245 4.515-2.24.14-.351.209-.701.278-1.051 1.946.735 4.203-.315 4.968-2.241.243-.63.312-1.296.243-1.926.347-.07 13.478-3.782 13.478-3.782.555-.14.903-.7.799-1.26l-3.196-20.134c-.035-.315-.243-.595-.486-.77a1.022 1.022 0 00-.904-.14l-11.15 2.87c-.521-.14-2.015-.874-6.01-3.29-3.369-2.031-4.307-2.557-5.28-2.557-1.18 0-3.647 1.296-5.349 2.311-.278-.175-.625-.245-1.007-.21zm27.337 4.657l2.536 15.897-4.828 1.366a5.772 5.772 0 001.146-1.821c.66-1.89.104-3.817-1.424-5.042-.035-.035-8.51-4.832-15.145-8.964a1.164 1.164 0 00-.59-.175l-2.05.07c-.14 0-.313.035-.452.105-2.362 1.12-2.605 2.03-2.675 2.346-.208.805-1.215 4.517-1.736 6.443-1.181.21-3.509-.876-3.891-1.681.139-.63.313-1.506.486-2.451.382-2.031.904-4.587 1.112-5.428.486-.945 5.523-3.956 6.426-4.096.452.105 2.258 1.19 3.717 2.066 3.786 2.276 6.392 3.781 7.99 3.781.66-.035 6.947-1.82 9.379-2.416zM47.972 83.301c-.452 0-1.008-.28-1.32-.666-.244-.315-.313-.665-.244-1.05.105-.42-.069-.875-.416-1.155a1.22 1.22 0 00-.66-.21c-.174 0-.383.034-.556.14-.834.455-2.154.035-2.849-.77-.208-.246-.416-.596-.347-1.016.07-.455-.104-.91-.521-1.156a1.092 1.092 0 00-1.25.07c-.244.175-.556.21-.765.21-.694 0-1.528-.385-1.91-.945-.313-.455-.209-.77-.209-.875a1.172 1.172 0 00-.417-1.26c-.416-.281-.938-.281-1.32.034-.625.455-1.528.175-2.119-.455-.277-.28-.312-.49-.312-.525l1.876-2.801c.277-.456 1.042-.035 1.493.525.244.28.313.49.278.595a1.14 1.14 0 00.764 1.225c.487.176 1.077-.034 1.32-.49.73-1.225 1.355-1.89 1.772-1.996.73-.105 1.355.14 1.841.666.347.385.486.77.486.98-.034.525.313.98.8 1.12.486.14 1.007-.07 1.285-.49.903-1.505 2.744-.735 3.404.245.173.28.278.56.208.736-.208.49-.035 1.05.382 1.365.452.316 1.008.28 1.425-.105.451-.385 1.528 0 1.91.666.209.385.174.77-.07 1.225-.381.595-3.126 5.497-3.577 6.128-.07.035-.278.035-.382.035z" fill="#AAD4C8"/><path d="M50.959 16.877c-.834-.735-2.084-.735-2.953 0L14.103 46.36a2.264 2.264 0 00-.764 1.716v42.648A2.262 2.262 0 0015.597 93h67.806a2.262 2.262 0 002.258-2.276V48.076c0-.666-.278-1.296-.764-1.716L50.959 16.877zm30.186 71.571h-63.29V49.126L49.5 21.604l31.645 27.522v39.322z" fill="#AAD4C8"/><path d="M97.437 40.092L52.418 1.085a4.457 4.457 0 00-5.87 0L1.563 40.092C-.313 41.738-.52 44.609 1.077 46.5c1.633 1.89 4.481 2.1 6.357.49L49.5 10.504l42.066 36.45a4.383 4.383 0 002.918 1.086c1.25 0 2.536-.525 3.404-1.575 1.633-1.856 1.425-4.727-.451-6.373z" fill="#AAD4C8"/></svg>