<svg width="86" height="77" fill="none" xmlns="http://www.w3.org/2000/svg"><path d="M1.567 74.857a5.365 5.365 0 003.776 1.579h75.314a5.365 5.365 0 003.776-1.58A5.422 5.422 0 0086 71.064V26.605H0V71.05a5.45 5.45 0 001.567 3.806zM68.674 30.21h12.31v11.04h-12.31V30.21zm0 14.093h12.31v11.028h-12.31V44.304zM52.75 30.21h12.311v11.04h-12.31V30.21zm0 14.093h12.311v11.028h-12.31V44.304zm0 14.08h12.311v11.029h-12.31V58.384zM36.84 30.211h12.31v11.04H36.84v-11.04zm0 14.093h12.31v11.028H36.84V44.304zm0 14.08h12.31v11.029H36.84V58.384zM20.915 30.211h12.311v11.04h-12.31v-11.04zm0 14.093h12.311v11.028h-12.31V44.304zm0 14.08h12.311v11.029h-12.31V58.384zM5.004 44.304h12.31v11.028H5.005V44.304zm0 14.08h12.31v11.029H5.005V58.384z" fill="#616E7D"/><path d="M85.977 21.48H0v3.181h85.977v-3.18zM8.838 6.186H5.332a5.365 5.365 0 00-3.776 1.579A5.461 5.461 0 000 11.559v6.245h85.977v-6.245a5.422 5.422 0 00-1.567-3.794 5.337 5.337 0 00-3.764-1.579h-9.05v7.034a2.372 2.372 0 01-2.361 2.38h-4.969a2.372 2.372 0 01-2.361-2.38V6.186H24.072v7.034a2.372 2.372 0 01-2.362 2.38h-4.968a2.364 2.364 0 01-2.362-2.38V6.186H8.838z" fill="#AAD4C8"/><path d="M85.977 17.804H0v3.676h85.977v-3.676z" fill="#82BFAB"/><path d="M16.742 13.22h4.968V0h-4.968v13.22zm47.524 0h4.98V0h-4.98v13.22z" fill="#616E7D"/><path d="M33.226 30.211h-12.31v11.04h12.31v-11.04zm15.924 0H36.839v11.04h12.31v-11.04zm15.911 0h-12.31v11.04h12.31v-11.04zm15.923 0h-12.31v11.04h12.31v-11.04zM17.315 44.304H5.004v11.028h12.31V44.304zm15.911 0h-12.31v11.028h12.31V44.304zm15.924 0H36.839v11.028h12.31V44.304z" fill="#82BFAB"/><path d="M65.061 44.304h-12.31v11.028h12.31V44.304z" fill="#AAD4C8"/><path d="M80.984 44.304h-12.31v11.028h12.31V44.304zm-63.669 14.08H5.004v11.029h12.31V58.384z" fill="#82BFAB"/><path d="M33.226 58.384h-12.31v11.029h12.31V58.384z" fill="#AAD4C8"/><path d="M49.15 58.384H36.839v11.029h12.31V58.384zm15.911 0h-12.31v11.029h12.31V58.384z" fill="#82BFAB"/></svg>